<svg width="437" height="953" viewBox="0 0 437 953" fill="none" xmlns="http://www.w3.org/2000/svg">
<g clip-path="url(#clip0_107_1136)">
<rect width="437" height="953" rx="25" fill="#9B79F6"/>
<path d="M137.086 439.918L129.254 469H120.953L115.738 450.055L110.66 469H102.359L94.5273 439.918H102.359L106.832 459.938L112.184 439.918H119.664L124.762 459.938L129.449 439.918H137.086ZM159.828 469H142.797V463.844H147.562V445.074H142.797V439.918H159.828V445.074H155.062V463.844H159.828V469ZM191.223 459.859C191.223 462.724 190.005 465.055 187.57 466.852C185.148 468.635 181.854 469.527 177.688 469.527C175.279 469.527 173.176 469.319 171.379 468.902C169.595 468.473 167.922 467.932 166.359 467.281V460.309H167.18C168.729 461.546 170.461 462.496 172.375 463.16C174.302 463.824 176.151 464.156 177.922 464.156C178.378 464.156 178.977 464.117 179.719 464.039C180.461 463.961 181.066 463.831 181.535 463.648C182.108 463.414 182.577 463.121 182.941 462.77C183.319 462.418 183.508 461.897 183.508 461.207C183.508 460.569 183.234 460.022 182.688 459.566C182.154 459.098 181.366 458.74 180.324 458.492C179.23 458.232 178.072 457.991 176.848 457.77C175.637 457.535 174.497 457.242 173.43 456.891C170.982 456.096 169.217 455.022 168.137 453.668C167.069 452.301 166.535 450.608 166.535 448.59C166.535 445.882 167.746 443.674 170.168 441.969C172.603 440.25 175.728 439.391 179.543 439.391C181.457 439.391 183.345 439.579 185.207 439.957C187.082 440.322 188.703 440.784 190.07 441.344V448.043H189.27C188.098 447.105 186.659 446.324 184.953 445.699C183.26 445.061 181.529 444.742 179.758 444.742C179.133 444.742 178.508 444.788 177.883 444.879C177.271 444.957 176.678 445.113 176.105 445.348C175.598 445.543 175.161 445.842 174.797 446.246C174.432 446.637 174.25 447.086 174.25 447.594C174.25 448.362 174.543 448.954 175.129 449.371C175.715 449.775 176.822 450.146 178.449 450.484C179.517 450.706 180.539 450.921 181.516 451.129C182.505 451.337 183.566 451.624 184.699 451.988C186.926 452.717 188.566 453.714 189.621 454.977C190.689 456.227 191.223 457.854 191.223 459.859ZM224.453 469H216.953V456.188H205.879V469H198.379V439.918H205.879V450.562H216.953V439.918H224.453V469ZM259.617 467.34C258.315 467.848 256.59 468.355 254.441 468.863C252.293 469.358 250.151 469.605 248.016 469.605C243.068 469.605 239.194 468.264 236.395 465.582C233.595 462.887 232.195 459.169 232.195 454.43C232.195 449.911 233.608 446.272 236.434 443.512C239.259 440.738 243.198 439.352 248.25 439.352C250.164 439.352 251.987 439.527 253.719 439.879C255.451 440.217 257.378 440.901 259.5 441.93V448.746H258.66C258.296 448.473 257.762 448.089 257.059 447.594C256.355 447.086 255.678 446.656 255.027 446.305C254.272 445.888 253.387 445.53 252.371 445.23C251.368 444.931 250.301 444.781 249.168 444.781C247.84 444.781 246.635 444.977 245.555 445.367C244.474 445.758 243.504 446.357 242.645 447.164C241.824 447.945 241.173 448.941 240.691 450.152C240.223 451.35 239.988 452.737 239.988 454.312C239.988 457.529 240.841 459.99 242.547 461.695C244.253 463.401 246.772 464.254 250.105 464.254C250.392 464.254 250.704 464.247 251.043 464.234C251.395 464.221 251.714 464.202 252 464.176V458.473H246.199V452.984H259.617V467.34ZM284.078 469H267.047V463.844H271.812V445.074H267.047V439.918H284.078V445.074H279.312V463.844H284.078V469ZM313.031 445.543H299.652V450.953H312.055V456.578H299.652V469H292.191V439.918H313.031V445.543ZM342.961 445.543H333.879V469H326.379V445.543H317.297V439.918H342.961V445.543Z" fill="white"/>
<g opacity="0.5" filter="url(#filter0_f_107_1136)">
<path d="M370.93 307.698C294.071 348.912 254.468 280.621 204.086 480.065C153.705 679.509 -115.165 299.327 37.242 307.698C189.649 316.068 227.578 184.967 153 54C78.4219 -76.9675 447.79 266.484 370.93 307.698Z" fill="#D9D9D9"/>
</g>
<g opacity="0.5" filter="url(#filter1_f_107_1136)">
<path d="M389.422 704.944C302.955 745.219 258.402 678.483 201.722 873.385C145.043 1068.29 -157.436 696.764 14.0222 704.944C185.48 713.124 285.623 664.486 201.722 536.502C117.822 408.518 475.889 664.668 389.422 704.944Z" fill="#D9D9D9"/>
</g>
</g>
<defs>
<filter id="filter0_f_107_1136" x="-169.5" y="-136.112" width="711.517" height="834.612" filterUnits="userSpaceOnUse" color-interpolation-filters="sRGB">
<feFlood flood-opacity="0" result="BackgroundImageFix"/>
<feBlend mode="normal" in="SourceGraphic" in2="BackgroundImageFix" result="shape"/>
<feGaussianBlur stdDeviation="80.25" result="effect1_foregroundBlur_107_1136"/>
</filter>
<filter id="filter1_f_107_1136" x="-187.3" y="351.7" width="739.6" height="727.6" filterUnits="userSpaceOnUse" color-interpolation-filters="sRGB">
<feFlood flood-opacity="0" result="BackgroundImageFix"/>
<feBlend mode="normal" in="SourceGraphic" in2="BackgroundImageFix" result="shape"/>
<feGaussianBlur stdDeviation="74.65" result="effect1_foregroundBlur_107_1136"/>
</filter>
<clipPath id="clip0_107_1136">
<rect width="437" height="953" rx="25" fill="white"/>
</clipPath>
</defs>
</svg>
